<svg xmlns="http://www.w3.org/2000/svg" viewBox="0 0 281.46 389.19"><defs><style>.cls-1{fill:#414042;}.cls-2{fill:none;stroke-linecap:round;stroke-width:20px;}.cls-2,.cls-3{stroke:#00a651;stroke-miterlimit:10;}.cls-3{fill:#00a651;stroke-width:3px;}</style></defs><g id="Layer_2" data-name="Layer 2"><g id="Layer_1-2" data-name="Layer 1"><path class="cls-1" d="M220.4,56,168.47,3.06A10.18,10.18,0,0,0,161.19,0H10.2a10.19,10.19,0,1,0,0,20.38H151V64.61a10.19,10.19,0,0,0,10.19,10.2h41.73v198H21.68V47.83a10.2,10.2,0,1,0-20.39,0V283a10.19,10.19,0,0,0,10.19,10.19H213.12A10.2,10.2,0,0,0,223.32,283V63.14A10.23,10.23,0,0,0,220.4,56Zm-49-1.58V35.15L190.3,54.42Z"/><polyline class="cls-2" points="59.32 171.36 109.42 221.46 271.46 59.42"/><path class="cls-3" d="M56.19,313q6.56,5.81,6.56,15.58,0,7.94-3.85,12.13a20.17,20.17,0,0,1-9.26,5.81v1.15a20,20,0,0,1,9.54,5.81c2.69,2.87,4,7,4,12.36q0,10-6.61,15.93t-17.08,5.92H2.72v-80.5H39.06Q49.64,307.19,56.19,313ZM37.45,340.31a11.51,11.51,0,0,0,7.82-2.59,9.85,9.85,0,0,0,0-14.14A11.51,11.51,0,0,0,37.45,321H17.9v19.32Zm.23,33.58a11.74,11.74,0,0,0,8-2.64,10.27,10.27,0,0,0,0-14.49,11.75,11.75,0,0,0-8-2.65H17.9v19.78Z"/><path class="cls-3" d="M134.22,315.42q8.46,8.22,8.45,24.43V355q0,16.22-8.45,24.44t-24.67,8.22H82v-80.5h27.6Q125.77,307.19,134.22,315.42Zm-24.44,58.47q17.72,0,17.71-18.4v-16.1q0-18.39-17.71-18.4H97.13v52.9Z"/><path class="cls-3" d="M169.35,307.19l18.29,68.08h1.15l18.28-68.08H222.6l-22.43,80.5H176.25l-22.42-80.5Z"/></g></g></svg>